<svg width="219" height="100" viewBox="0 0 219 100" fill="none" xmlns="http://www.w3.org/2000/svg">
<path d="M50.4966 5.35673L89.1224 46.5813C90.9241 48.5043 90.9241 51.4957 89.1224 53.4187L50.4966 94.6433C48.5211 96.7517 45.1748 96.7517 43.1993 94.6433L4.5735 53.4187C2.77173 51.4957 2.77173 48.5043 4.5735 46.5813L43.1993 5.35673C45.1748 3.24827 48.5211 3.24827 50.4966 5.35673Z" stroke="#00FF40" stroke-width="2"/>
<path d="M49.7932 40.1224C49.3879 39.3758 48.8012 38.8104 48.0332 38.4264C47.2865 38.0211 46.4012 37.8184 45.3772 37.8184C43.6065 37.8184 42.1879 38.4051 41.1212 39.5784C40.0545 40.7304 39.5212 42.2771 39.5212 44.2184C39.5212 46.2878 40.0759 47.9091 41.1852 49.0824C42.3159 50.2344 43.8625 50.8104 45.8252 50.8104C47.1692 50.8104 48.2999 50.4691 49.2172 49.7864C50.1559 49.1038 50.8385 48.1224 51.2652 46.8424H44.3212V42.8104H56.2252V47.8984C55.8199 49.2638 55.1265 50.5331 54.1452 51.7064C53.1852 52.8798 51.9585 53.8291 50.4652 54.5544C48.9719 55.2798 47.2865 55.6424 45.4092 55.6424C43.1905 55.6424 41.2065 55.1624 39.4572 54.2024C37.7292 53.2211 36.3745 51.8664 35.3932 50.1384C34.4332 48.4104 33.9532 46.4371 33.9532 44.2184C33.9532 41.9998 34.4332 40.0264 35.3932 38.2984C36.3745 36.5491 37.7292 35.1944 39.4572 34.2344C41.1852 33.2531 43.1585 32.7624 45.3772 32.7624C48.0652 32.7624 50.3265 33.4131 52.1612 34.7144C54.0172 36.0158 55.2439 37.8184 55.8412 40.1224H49.7932ZM78.7762 37.6264L67.5762 63.9624H61.6882L65.7842 54.8744L58.5202 37.6264H64.6322L68.7602 48.7944L72.8562 37.6264H78.7762ZM80.9469 46.5224C80.9469 44.6878 81.2883 43.0771 81.9709 41.6904C82.6749 40.3038 83.6243 39.2371 84.8189 38.4904C86.0136 37.7438 87.3469 37.3704 88.8189 37.3704C90.0776 37.3704 91.1763 37.6264 92.1149 38.1384C93.0749 38.6504 93.8109 39.3224 94.3229 40.1544V37.6264H99.7949V55.4824H94.3229V52.9544C93.7896 53.7864 93.0429 54.4584 92.0829 54.9704C91.1443 55.4824 90.0456 55.7384 88.7869 55.7384C87.3363 55.7384 86.0136 55.3651 84.8189 54.6184C83.6243 53.8504 82.6749 52.7731 81.9709 51.3864C81.2883 49.9784 80.9469 48.3571 80.9469 46.5224ZM94.3229 46.5544C94.3229 45.1891 93.9389 44.1118 93.1709 43.3224C92.4243 42.5331 91.5069 42.1384 90.4189 42.1384C89.3309 42.1384 88.4029 42.5331 87.6349 43.3224C86.8883 44.0904 86.5149 45.1571 86.5149 46.5224C86.5149 47.8878 86.8883 48.9758 87.6349 49.7864C88.4029 50.5758 89.3309 50.9704 90.4189 50.9704C91.5069 50.9704 92.4243 50.5758 93.1709 49.7864C93.9389 48.9971 94.3229 47.9198 94.3229 46.5544ZM115.914 37.4344C118.004 37.4344 119.668 38.1171 120.906 39.4824C122.164 40.8264 122.794 42.6824 122.794 45.0504V55.4824H117.354V45.7864C117.354 44.5918 117.044 43.6638 116.426 43.0024C115.807 42.3411 114.975 42.0104 113.93 42.0104C112.884 42.0104 112.052 42.3411 111.434 43.0024C110.815 43.6638 110.506 44.5918 110.506 45.7864V55.4824H105.034V37.6264H110.506V39.9944C111.06 39.2051 111.807 38.5864 112.746 38.1384C113.684 37.6691 114.74 37.4344 115.914 37.4344ZM136.004 55.7064C134.362 55.7064 132.89 55.4398 131.588 54.9064C130.287 54.3731 129.242 53.5838 128.452 52.5384C127.684 51.4931 127.279 50.2344 127.236 48.7624H133.06C133.146 49.5944 133.434 50.2344 133.924 50.6824C134.415 51.1091 135.055 51.3224 135.844 51.3224C136.655 51.3224 137.295 51.1411 137.764 50.7784C138.234 50.3944 138.468 49.8718 138.468 49.2104C138.468 48.6558 138.276 48.1971 137.892 47.8344C137.53 47.4718 137.071 47.1731 136.516 46.9384C135.983 46.7038 135.215 46.4371 134.212 46.1384C132.762 45.6904 131.578 45.2424 130.66 44.7944C129.743 44.3464 128.954 43.6851 128.292 42.8104C127.631 41.9358 127.3 40.7944 127.3 39.3864C127.3 37.2958 128.058 35.6638 129.572 34.4904C131.087 33.2958 133.06 32.6984 135.492 32.6984C137.967 32.6984 139.962 33.2958 141.476 34.4904C142.991 35.6638 143.802 37.3064 143.908 39.4184H137.988C137.946 38.6931 137.679 38.1278 137.188 37.7224C136.698 37.2958 136.068 37.0824 135.3 37.0824C134.639 37.0824 134.106 37.2638 133.7 37.6264C133.295 37.9678 133.092 38.4691 133.092 39.1304C133.092 39.8558 133.434 40.4211 134.116 40.8264C134.799 41.2318 135.866 41.6691 137.316 42.1384C138.767 42.6291 139.94 43.0984 140.836 43.5464C141.754 43.9944 142.543 44.6451 143.204 45.4984C143.866 46.3518 144.196 47.4504 144.196 48.7944C144.196 50.0744 143.866 51.2371 143.204 52.2824C142.564 53.3278 141.626 54.1598 140.388 54.7784C139.151 55.3971 137.69 55.7064 136.004 55.7064ZM156.972 55.7384C155.222 55.7384 153.644 55.3651 152.236 54.6184C150.849 53.8718 149.75 52.8051 148.94 51.4184C148.15 50.0318 147.756 48.4104 147.756 46.5544C147.756 44.7198 148.161 43.1091 148.972 41.7224C149.782 40.3144 150.892 39.2371 152.3 38.4904C153.708 37.7438 155.286 37.3704 157.036 37.3704C158.785 37.3704 160.364 37.7438 161.772 38.4904C163.18 39.2371 164.289 40.3144 165.1 41.7224C165.91 43.1091 166.316 44.7198 166.316 46.5544C166.316 48.3891 165.9 50.0104 165.068 51.4184C164.257 52.8051 163.137 53.8718 161.708 54.6184C160.3 55.3651 158.721 55.7384 156.972 55.7384ZM156.972 51.0024C158.017 51.0024 158.902 50.6184 159.628 49.8504C160.374 49.0824 160.748 47.9838 160.748 46.5544C160.748 45.1251 160.385 44.0264 159.66 43.2584C158.956 42.4904 158.081 42.1064 157.036 42.1064C155.969 42.1064 155.084 42.4904 154.38 43.2584C153.676 44.0051 153.324 45.1038 153.324 46.5544C153.324 47.9838 153.665 49.0824 154.348 49.8504C155.052 50.6184 155.926 51.0024 156.972 51.0024ZM175.971 40.6024C176.611 39.6211 177.411 38.8531 178.371 38.2984C179.331 37.7224 180.397 37.4344 181.571 37.4344V43.2264H180.067C178.701 43.2264 177.677 43.5251 176.995 44.1224C176.312 44.6984 175.971 45.7224 175.971 47.1944V55.4824H170.499V37.6264H175.971V40.6024ZM195.418 50.8424V55.4824H192.634C190.65 55.4824 189.104 55.0024 187.994 54.0424C186.885 53.0611 186.33 51.4718 186.33 49.2744V42.1704H184.154V37.6264H186.33V33.2744H191.802V37.6264H195.386V42.1704H191.802V49.3384C191.802 49.8718 191.93 50.2558 192.186 50.4904C192.442 50.7251 192.869 50.8424 193.466 50.8424H195.418Z" fill="white"/>
</svg>
